<mxfile host="Electron" agent="Mozilla/5.0 (Windows NT 10.0; Win64; x64) AppleWebKit/537.36 (KHTML, like Gecko) draw.io/27.0.9 Chrome/134.0.6998.205 Electron/35.4.0 Safari/537.36" version="27.0.9">
  <diagram name="Página-1" id="zQjjP_EeiTSpy_okXXAl">
    <mxGraphModel dx="946" dy="661" grid="1" gridSize="10" guides="1" tooltips="1" connect="1" arrows="1" fold="1" page="1" pageScale="1" pageWidth="827" pageHeight="1169" math="0" shadow="0">
      <root>
        <mxCell id="0" />
        <mxCell id="1" parent="0" />
        <mxCell id="6szqF-HWiwXXCvLiffZ1-7" value="Trasancciones" style="shape=ext;margin=3;double=1;whiteSpace=wrap;html=1;align=center;fillColor=#f0a30a;fontColor=#000000;strokeColor=#BD7000;" vertex="1" parent="1">
          <mxGeometry x="665" y="520" width="100" height="40" as="geometry" />
        </mxCell>
        <mxCell id="WaoTn9s4dJFNc4XUzfgy-2" value="Cliente" style="whiteSpace=wrap;html=1;align=center;fillColor=#f0a30a;strokeColor=#BD7000;fontColor=#000000;" parent="1" vertex="1">
          <mxGeometry x="100" y="520" width="100" height="40" as="geometry" />
        </mxCell>
        <mxCell id="WaoTn9s4dJFNc4XUzfgy-3" value="Cuenta" style="whiteSpace=wrap;html=1;align=center;fillColor=#f0a30a;strokeColor=#BD7000;fontColor=#000000;" parent="1" vertex="1">
          <mxGeometry x="364" y="520" width="100" height="40" as="geometry" />
        </mxCell>
        <mxCell id="WaoTn9s4dJFNc4XUzfgy-4" value="Sucursal" style="whiteSpace=wrap;html=1;align=center;fillColor=#f0a30a;strokeColor=#BD7000;fontColor=#000000;" parent="1" vertex="1">
          <mxGeometry x="364" y="350" width="100" height="40" as="geometry" />
        </mxCell>
        <mxCell id="WaoTn9s4dJFNc4XUzfgy-5" style="edgeStyle=orthogonalEdgeStyle;rounded=0;orthogonalLoop=1;jettySize=auto;html=1;exitX=0.5;exitY=1;exitDx=0;exitDy=0;" parent="1" edge="1">
          <mxGeometry relative="1" as="geometry">
            <mxPoint x="720" y="560" as="sourcePoint" />
            <mxPoint x="720" y="560" as="targetPoint" />
          </mxGeometry>
        </mxCell>
        <mxCell id="WaoTn9s4dJFNc4XUzfgy-7" value="Tiene" style="shape=rhombus;perimeter=rhombusPerimeter;whiteSpace=wrap;html=1;align=center;fillColor=#76608a;fontColor=#ffffff;strokeColor=#432D57;" parent="1" vertex="1">
          <mxGeometry x="240" y="520" width="90" height="40" as="geometry" />
        </mxCell>
        <mxCell id="WaoTn9s4dJFNc4XUzfgy-8" value="" style="endArrow=none;html=1;rounded=0;exitX=0;exitY=0.5;exitDx=0;exitDy=0;" parent="1" source="WaoTn9s4dJFNc4XUzfgy-7" edge="1">
          <mxGeometry relative="1" as="geometry">
            <mxPoint x="241" y="510" as="sourcePoint" />
            <mxPoint x="194" y="540" as="targetPoint" />
          </mxGeometry>
        </mxCell>
        <mxCell id="WaoTn9s4dJFNc4XUzfgy-9" value="(1,N)" style="resizable=0;html=1;whiteSpace=wrap;align=right;verticalAlign=bottom;" parent="WaoTn9s4dJFNc4XUzfgy-8" connectable="0" vertex="1">
          <mxGeometry x="1" relative="1" as="geometry">
            <mxPoint x="34" as="offset" />
          </mxGeometry>
        </mxCell>
        <mxCell id="WaoTn9s4dJFNc4XUzfgy-10" value="" style="endArrow=none;html=1;rounded=0;exitX=1;exitY=0.5;exitDx=0;exitDy=0;" parent="1" source="WaoTn9s4dJFNc4XUzfgy-7" edge="1">
          <mxGeometry relative="1" as="geometry">
            <mxPoint x="241" y="510" as="sourcePoint" />
            <mxPoint x="380" y="540" as="targetPoint" />
          </mxGeometry>
        </mxCell>
        <mxCell id="WaoTn9s4dJFNc4XUzfgy-11" value="(1,M)" style="resizable=0;html=1;whiteSpace=wrap;align=right;verticalAlign=bottom;" parent="WaoTn9s4dJFNc4XUzfgy-10" connectable="0" vertex="1">
          <mxGeometry x="1" relative="1" as="geometry">
            <mxPoint as="offset" />
          </mxGeometry>
        </mxCell>
        <mxCell id="WaoTn9s4dJFNc4XUzfgy-13" value="Está" style="shape=rhombus;perimeter=rhombusPerimeter;whiteSpace=wrap;html=1;align=center;fillColor=#76608a;fontColor=#ffffff;strokeColor=#432D57;" parent="1" vertex="1">
          <mxGeometry x="374" y="430" width="90" height="40" as="geometry" />
        </mxCell>
        <mxCell id="WaoTn9s4dJFNc4XUzfgy-14" value="" style="endArrow=none;html=1;rounded=0;exitX=0;exitY=0.5;exitDx=0;exitDy=0;" parent="1" source="WaoTn9s4dJFNc4XUzfgy-13" target="WaoTn9s4dJFNc4XUzfgy-4" edge="1">
          <mxGeometry relative="1" as="geometry">
            <mxPoint x="351" y="420" as="sourcePoint" />
            <mxPoint x="304" y="450" as="targetPoint" />
          </mxGeometry>
        </mxCell>
        <mxCell id="WaoTn9s4dJFNc4XUzfgy-15" value="(1,1)" style="resizable=0;html=1;whiteSpace=wrap;align=right;verticalAlign=bottom;" parent="WaoTn9s4dJFNc4XUzfgy-14" connectable="0" vertex="1">
          <mxGeometry x="1" relative="1" as="geometry">
            <mxPoint x="34" as="offset" />
          </mxGeometry>
        </mxCell>
        <mxCell id="WaoTn9s4dJFNc4XUzfgy-16" value="" style="endArrow=none;html=1;rounded=0;exitX=1;exitY=0.5;exitDx=0;exitDy=0;" parent="1" source="WaoTn9s4dJFNc4XUzfgy-13" target="WaoTn9s4dJFNc4XUzfgy-3" edge="1">
          <mxGeometry relative="1" as="geometry">
            <mxPoint x="351" y="420" as="sourcePoint" />
            <mxPoint x="524" y="450" as="targetPoint" />
          </mxGeometry>
        </mxCell>
        <mxCell id="WaoTn9s4dJFNc4XUzfgy-17" value="(1,N)" style="resizable=0;html=1;whiteSpace=wrap;align=right;verticalAlign=bottom;" parent="WaoTn9s4dJFNc4XUzfgy-16" connectable="0" vertex="1">
          <mxGeometry x="1" relative="1" as="geometry">
            <mxPoint as="offset" />
          </mxGeometry>
        </mxCell>
        <mxCell id="WaoTn9s4dJFNc4XUzfgy-18" value="viene" style="shape=rhombus;perimeter=rhombusPerimeter;whiteSpace=wrap;html=1;align=center;fillColor=#76608a;fontColor=#ffffff;strokeColor=#432D57;" parent="1" vertex="1">
          <mxGeometry x="520" y="520" width="90" height="40" as="geometry" />
        </mxCell>
        <mxCell id="WaoTn9s4dJFNc4XUzfgy-19" value="" style="endArrow=none;html=1;rounded=0;exitX=0;exitY=0.5;exitDx=0;exitDy=0;" parent="1" source="WaoTn9s4dJFNc4XUzfgy-18" edge="1">
          <mxGeometry relative="1" as="geometry">
            <mxPoint x="497" y="510" as="sourcePoint" />
            <mxPoint x="450" y="540" as="targetPoint" />
          </mxGeometry>
        </mxCell>
        <mxCell id="WaoTn9s4dJFNc4XUzfgy-20" value="(1,1)" style="resizable=0;html=1;whiteSpace=wrap;align=right;verticalAlign=bottom;" parent="WaoTn9s4dJFNc4XUzfgy-19" connectable="0" vertex="1">
          <mxGeometry x="1" relative="1" as="geometry">
            <mxPoint x="34" as="offset" />
          </mxGeometry>
        </mxCell>
        <mxCell id="WaoTn9s4dJFNc4XUzfgy-21" value="" style="endArrow=none;html=1;rounded=0;exitX=1;exitY=0.5;exitDx=0;exitDy=0;" parent="1" source="WaoTn9s4dJFNc4XUzfgy-18" edge="1">
          <mxGeometry relative="1" as="geometry">
            <mxPoint x="497" y="510" as="sourcePoint" />
            <mxPoint x="670" y="540" as="targetPoint" />
          </mxGeometry>
        </mxCell>
        <mxCell id="WaoTn9s4dJFNc4XUzfgy-22" value="(1,N)" style="resizable=0;html=1;whiteSpace=wrap;align=right;verticalAlign=bottom;" parent="WaoTn9s4dJFNc4XUzfgy-21" connectable="0" vertex="1">
          <mxGeometry x="1" relative="1" as="geometry">
            <mxPoint as="offset" />
          </mxGeometry>
        </mxCell>
        <mxCell id="WaoTn9s4dJFNc4XUzfgy-23" value="" style="endArrow=none;html=1;rounded=0;" parent="1" target="WaoTn9s4dJFNc4XUzfgy-24" edge="1">
          <mxGeometry relative="1" as="geometry">
            <mxPoint x="724.7619047619048" y="520" as="sourcePoint" />
            <mxPoint x="745" y="435" as="targetPoint" />
          </mxGeometry>
        </mxCell>
        <mxCell id="WaoTn9s4dJFNc4XUzfgy-24" value="&lt;u&gt;Numero_De_Trasaccion&lt;/u&gt;" style="ellipse;whiteSpace=wrap;html=1;align=center;" parent="1" vertex="1">
          <mxGeometry x="720" y="420" width="50" height="30" as="geometry" />
        </mxCell>
        <mxCell id="WaoTn9s4dJFNc4XUzfgy-25" value="" style="endArrow=none;html=1;rounded=0;" parent="1" target="WaoTn9s4dJFNc4XUzfgy-26" edge="1">
          <mxGeometry relative="1" as="geometry">
            <mxPoint x="712" y="560" as="sourcePoint" />
            <mxPoint x="690" y="615" as="targetPoint" />
          </mxGeometry>
        </mxCell>
        <mxCell id="WaoTn9s4dJFNc4XUzfgy-26" value="Fecha" style="ellipse;whiteSpace=wrap;html=1;align=center;" parent="1" vertex="1">
          <mxGeometry x="665" y="600" width="50" height="30" as="geometry" />
        </mxCell>
        <mxCell id="WaoTn9s4dJFNc4XUzfgy-27" value="" style="endArrow=none;html=1;rounded=0;" parent="1" target="WaoTn9s4dJFNc4XUzfgy-28" edge="1">
          <mxGeometry relative="1" as="geometry">
            <mxPoint x="732" y="560" as="sourcePoint" />
            <mxPoint x="775" y="665" as="targetPoint" />
          </mxGeometry>
        </mxCell>
        <mxCell id="WaoTn9s4dJFNc4XUzfgy-28" value="Cantidad" style="ellipse;whiteSpace=wrap;html=1;align=center;" parent="1" vertex="1">
          <mxGeometry x="740" y="600" width="50" height="30" as="geometry" />
        </mxCell>
        <mxCell id="6szqF-HWiwXXCvLiffZ1-1" value="" style="endArrow=none;html=1;rounded=0;exitX=0.87;exitY=0;exitDx=0;exitDy=0;exitPerimeter=0;" edge="1" target="6szqF-HWiwXXCvLiffZ1-2" parent="1" source="WaoTn9s4dJFNc4XUzfgy-4">
          <mxGeometry relative="1" as="geometry">
            <mxPoint x="450" y="295" as="sourcePoint" />
            <mxPoint x="510" y="295" as="targetPoint" />
          </mxGeometry>
        </mxCell>
        <mxCell id="6szqF-HWiwXXCvLiffZ1-2" value="&lt;u&gt;Codigo_Sucursal&lt;/u&gt;" style="ellipse;whiteSpace=wrap;html=1;align=center;" vertex="1" parent="1">
          <mxGeometry x="485" y="280" width="50" height="30" as="geometry" />
        </mxCell>
        <mxCell id="6szqF-HWiwXXCvLiffZ1-3" value="" style="endArrow=none;html=1;rounded=0;" edge="1" target="6szqF-HWiwXXCvLiffZ1-4" parent="1" source="WaoTn9s4dJFNc4XUzfgy-3">
          <mxGeometry relative="1" as="geometry">
            <mxPoint x="390" y="625" as="sourcePoint" />
            <mxPoint x="450" y="625" as="targetPoint" />
          </mxGeometry>
        </mxCell>
        <mxCell id="6szqF-HWiwXXCvLiffZ1-4" value="&lt;u&gt;IBAN_Cuenta&lt;/u&gt;" style="ellipse;whiteSpace=wrap;html=1;align=center;" vertex="1" parent="1">
          <mxGeometry x="425" y="610" width="50" height="30" as="geometry" />
        </mxCell>
        <mxCell id="6szqF-HWiwXXCvLiffZ1-5" value="" style="endArrow=none;html=1;rounded=0;" edge="1" target="6szqF-HWiwXXCvLiffZ1-6" parent="1" source="WaoTn9s4dJFNc4XUzfgy-2">
          <mxGeometry relative="1" as="geometry">
            <mxPoint x="100" y="645" as="sourcePoint" />
            <mxPoint x="160" y="645" as="targetPoint" />
          </mxGeometry>
        </mxCell>
        <mxCell id="6szqF-HWiwXXCvLiffZ1-6" value="&lt;u&gt;DNI&lt;/u&gt;" style="ellipse;whiteSpace=wrap;html=1;align=center;" vertex="1" parent="1">
          <mxGeometry x="100" y="590" width="50" height="30" as="geometry" />
        </mxCell>
      </root>
    </mxGraphModel>
  </diagram>
</mxfile>
